<?xml version="1.0" encoding="UTF-8"?>
<svg xmlns="http://www.w3.org/2000/svg" viewBox="0 0 24 24" width="24" height="24" fill="#2D3748"><title>SHOW-006 奖杯·协同 / TrophyWithPerson</title><path d="M 4.680 8.400 L 14.040 8.400 L 14.040 11.520 Q 14.040 15.420 9.360 15.420 Q 4.680 15.420 4.680 11.520 Z"/><path d="M 3.120 9.180 Q 0.780 9.180 0.780 11.520 Q 0.780 13.860 4.680 13.860"/><path d="M 15.600 9.180 Q 17.940 9.180 17.940 11.520 Q 17.940 13.860 14.040 13.860"/><rect x="7.8" y="15.42" width="3.12" height="3.9" rx="0.234" ry="0.234"/><rect x="5.46" y="19.32" width="7.8" height="1.56" rx="0.234" ry="0.234"/><ellipse cx="19" cy="3.4" rx="1.2" ry="1.2"/><path d="M 16.6 7.6 C 16.6 5.4 21.4 5.4 21.4 7.6 Z"/></svg>